<?xml version="1.0" encoding="utf-8"?>
<svg version="1.1" xmlns="http://www.w3.org/2000/svg" xmlns:xlink="http://www.w3.org/1999/xlink" 
	 viewBox="170 280 250 280" width="32" height="32">
<g>
	<path fill="#003966" d="M343.476,400.46c6.627,0,12.068-5.371,12.068-11.952c0-6.569-5.441-11.952-12.068-11.952
		c-6.643,0-12.047,5.382-12.047,11.952C331.429,395.089,336.833,400.46,343.476,400.46z"/>
	<path fill="#003966" d="M311.577,352.189c-8.129,8.091-8.188,20.725-8.188,20.867v51.649v37.396
		c0,16.086-4.618,28.332-13.738,36.352c-9.683,8.563-21.719,9.709-27.498,9.709c-1.977,0-3.244-0.113-3.398-0.152l-37.192,0.039
		c-0.058,0,5.938,0.037,5.912,0.037c-0.065,0-0.065-0.037-0.065-0.037h-48.354v3.668c0,25.207,20.821,45.854,46.221,45.854h144.688
		c25.434,0,46.256-20.646,46.256-45.854V345.109h-84.58C323.11,345.109,316.329,347.494,311.577,352.189z M365.298,498.613
		c0,3.15-2.549,5.707-5.736,5.707h-32.18c-3.178,0-5.756-2.557-5.756-5.707v-68.586c0-3.125,2.578-5.676,5.756-5.676h32.18
		c3.188,0,5.736,2.551,5.736,5.676V498.613z M367.048,388.508c0,12.903-10.564,23.361-23.572,23.361
		c-12.988,0-23.564-10.458-23.564-23.361c0-12.886,10.576-23.333,23.564-23.333C356.483,365.175,367.048,375.622,367.048,388.508z"
		/>
	<path fill="#005691" d="M264.174,388.508c0-6.569-5.419-11.952-12.115-11.952c-6.629,0-12.048,5.382-12.048,11.952
		c0,6.581,5.419,11.952,12.048,11.952C258.755,400.46,264.174,395.089,264.174,388.508z"/>
	<rect x="333.112" y="435.762" fill="#003966" width="20.705" height="57.176"/>
	<path fill="#005691" d="M240.011,492.297c6.301-6.318,6.322-17.563,6.322-17.664v-63.932
		c-10.127-2.601-17.835-11.335-17.835-22.192c0-5.452,2.187-10.235,5.409-14.208h-1.268c-3.179,0-5.735-2.574-5.735-5.741
		c0-3.121,2.557-5.671,5.735-5.671h13.693v-6.45c0-3.138,2.563-5.7,5.726-5.7c3.217,0,5.791,2.562,5.791,5.7v6.45h13.666
		c3.202,0,5.76,2.551,5.76,5.671c0,3.167-2.558,5.741-5.76,5.741h-1.222c3.187,3.972,5.398,8.755,5.398,14.208
		c0,10.857-7.698,19.592-17.843,22.192v63.874c0,0.506,0.048,12.545-6.676,22.1h8.251c0.752,0.08,13.608,1.299,22.667-6.816
		c6.488-5.758,9.817-15.123,9.817-27.756v-36.893v-52.132c-0.038-0.634-0.05-17.309,11.457-28.808
		c6.967-7.018,16.488-10.57,28.273-10.57h84.58v-3.55c0-25.219-20.822-45.827-46.256-45.827H225.276
		c-25.399,0-46.221,20.607-46.221,45.827v166.525h49.167C233.21,496.674,237.092,495.24,240.011,492.297z"/>
</g>
</svg>
